<?xml version="1.0" encoding="UTF-8" standalone="no"?>
<!-- Generator: Adobe Illustrator 26.0.0, SVG Export Plug-In . SVG Version: 6.00 Build 0)  -->

<svg
   version="1.1"
   id="Layer_1"
   x="0px"
   y="0px"
   viewBox="0 0 24 24"
   xml:space="preserve"
   sodipodi:docname="copy_small.svg"
   width="24"
   height="24"
   inkscape:version="1.3 (0e150ed6c4, 2023-07-21)"
   xmlns:inkscape="http://www.inkscape.org/namespaces/inkscape"
   xmlns:sodipodi="http://sodipodi.sourceforge.net/DTD/sodipodi-0.dtd"
   xmlns="http://www.w3.org/2000/svg"
   xmlns:svg="http://www.w3.org/2000/svg"><defs
   id="defs3" /><sodipodi:namedview
   id="namedview3"
   pagecolor="#505050"
   bordercolor="#eeeeee"
   borderopacity="1"
   inkscape:showpageshadow="0"
   inkscape:pageopacity="0"
   inkscape:pagecheckerboard="0"
   inkscape:deskcolor="#505050"
   showgrid="true"
   inkscape:zoom="20.75"
   inkscape:cx="10.289157"
   inkscape:cy="10.60241"
   inkscape:window-width="1600"
   inkscape:window-height="868"
   inkscape:window-x="0"
   inkscape:window-y="32"
   inkscape:window-maximized="1"
   inkscape:current-layer="Layer_1"><inkscape:grid
     id="grid3"
     units="px"
     originx="0"
     originy="0"
     spacingx="1"
     spacingy="1"
     empcolor="#0099e5"
     empopacity="0.30196078"
     color="#0099e5"
     opacity="0.14902"
     empspacing="8"
     dotted="false"
     gridanglex="30"
     gridanglez="30"
     visible="true" /></sodipodi:namedview>&#10;<style
   type="text/css"
   id="style1">&#10;	.st0{fill:#FFFFFF;}&#10;</style>&#10;&#10;<path
   d="m 14,4 v 2 h 2 c 0,-0.06875 -0.0029,-0.1361086 -0.0098,-0.203125 -0.0069,-0.067017 -0.01787,-0.1342774 -0.03125,-0.1992188 -0.01338,-0.064941 -0.02927,-0.1288819 -0.04883,-0.1914062 -0.01956,-0.062524 -0.04297,-0.1238282 -0.06836,-0.1835938 -0.02539,-0.059766 -0.05311,-0.1171631 -0.08398,-0.1738281 -0.03088,-0.056665 -0.06358,-0.1108399 -0.09961,-0.1640625 -0.03604,-0.053223 -0.07634,-0.1048584 -0.117187,-0.1542969 -0.04085,-0.049438 -0.08359,-0.097266 -0.128907,-0.1425781 -0.04531,-0.045312 -0.09314,-0.088061 -0.142578,-0.1289062 -0.04944,-0.040845 -0.09912,-0.079199 -0.152343,-0.1152344 -0.05322,-0.036035 -0.109351,-0.070679 -0.166016,-0.1015625 -0.05666,-0.030884 -0.114063,-0.058594 -0.173828,-0.083984 -0.05977,-0.025391 -0.12107,-0.048804 -0.183594,-0.068359 -0.06252,-0.019556 -0.126465,-0.035449 -0.191406,-0.048828 -0.06494,-0.013379 -0.132202,-0.02439 -0.199219,-0.03125 C 14.136141,4.0029044 14.06875,4 14,4 Z"
   style="fill:#ffffff"
   id="path17" /><path
   d="m 11,4 v 2 h 2 V 4 Z"
   style="fill:#ffffff"
   id="path16" /><path
   d="M 7,16 H 5 c 0,0.06875 0.00291,0.136108 0.00977,0.203125 0.00686,0.06702 0.017871,0.134277 0.03125,0.199219 0.013379,0.06494 0.029273,0.128882 0.048828,0.191406 0.019556,0.06252 0.042969,0.123828 0.068359,0.183594 0.025391,0.05977 0.053101,0.117163 0.083984,0.173828 0.030884,0.05666 0.065527,0.112794 0.1015625,0.166015 0.036035,0.05322 0.07439,0.102906 0.1152344,0.152344 0.040845,0.04944 0.083594,0.09727 0.1289062,0.142578 0.045313,0.04531 0.09314,0.08806 0.1425781,0.128907 0.049438,0.04084 0.1010744,0.0792 0.1542969,0.115234 0.053223,0.03603 0.1073976,0.07068 0.1640625,0.101562 0.056665,0.03088 0.1140627,0.0586 0.1738281,0.08398 0.059766,0.02539 0.1210695,0.0488 0.1835938,0.06836 0.062524,0.01956 0.126465,0.03545 0.1914062,0.04883 0.064941,0.01338 0.1322024,0.02439 0.1992188,0.03125 C 6.8638879,17.997097 6.9312502,18 7,18 Z"
   style="fill:#ffffff"
   id="path15" /><path
   d="M 7,13 H 5 v 2 h 2 z"
   style="fill:#ffffff"
   id="path14" /><path
   d="M 7,10 H 5 v 2 h 2 z"
   style="fill:#ffffff"
   id="path13" /><path
   d="M 5,6 H 7 V 4 c -0.06875,0 -0.1361086,0.00291 -0.203125,0.00977 -0.067017,0.00686 -0.1342774,0.017871 -0.1992188,0.03125 -0.064941,0.013379 -0.1288819,0.029273 -0.1914062,0.048828 -0.062524,0.019556 -0.1238282,0.042969 -0.1835938,0.068359 -0.059766,0.025391 -0.1171631,0.053101 -0.1738281,0.083984 C 5.9921632,4.2730715 5.9379882,4.3077145 5.8847656,4.34375 5.8315427,4.379785 5.7799072,4.41814 5.7304687,4.4589844 5.6810308,4.4998293 5.6332027,4.5425785 5.5878906,4.5878906 5.5425787,4.6332036 5.4998295,4.6810307 5.4589844,4.7304687 5.4181397,4.7799037 5.3797851,4.8315431 5.34375,4.8847656 5.3077149,4.9379882 5.2730713,4.9921632 5.2421875,5.0488281 5.2113037,5.1054931 5.1835937,5.1628908 5.1582031,5.2226562 5.1328126,5.2824218 5.1093994,5.3437257 5.0898437,5.40625 5.0702882,5.4687743 5.0543945,5.532715 5.0410156,5.5976562 5.0276367,5.6625976 5.016626,5.7298586 5.0097656,5.796875 5.0029053,5.8638914 5,5.9312502 5,6 Z"
   style="fill:#ffffff"
   id="path12" /><path
   d="M 7,7 H 5 v 2 h 2 z"
   style="fill:#ffffff"
   id="path11" /><path
   d="m 8,4 v 2 h 2 V 4 Z"
   style="fill:#ffffff"
   id="path10" />&#10;<rect
   style="fill:#ffffff;stroke:none;stroke-width:2;stroke-linecap:round;stroke-linejoin:round;stroke-dashoffset:16"
   id="rect1"
   width="11"
   height="14"
   x="8"
   y="7"
   ry="2" /></svg>
