<?xml version="1.0" encoding="UTF-8" standalone="no"?>
<!-- Generator: Adobe Illustrator 26.0.0, SVG Export Plug-In . SVG Version: 6.00 Build 0)  -->

<svg
   version="1.1"
   id="Layer_1"
   x="0px"
   y="0px"
   viewBox="0 0 32 32"
   style="enable-background:new 0 0 32 32;"
   xml:space="preserve"
   sodipodi:docname="copy.svg"
   inkscape:version="1.3 (0e150ed6c4, 2023-07-21)"
   xmlns:inkscape="http://www.inkscape.org/namespaces/inkscape"
   xmlns:sodipodi="http://sodipodi.sourceforge.net/DTD/sodipodi-0.dtd"
   xmlns="http://www.w3.org/2000/svg"
   xmlns:svg="http://www.w3.org/2000/svg"><defs
   id="defs3" /><sodipodi:namedview
   id="namedview3"
   pagecolor="#505050"
   bordercolor="#eeeeee"
   borderopacity="1"
   inkscape:showpageshadow="0"
   inkscape:pageopacity="0"
   inkscape:pagecheckerboard="0"
   inkscape:deskcolor="#505050"
   inkscape:zoom="20.75"
   inkscape:cx="15.73494"
   inkscape:cy="17.301205"
   inkscape:window-width="1600"
   inkscape:window-height="868"
   inkscape:window-x="0"
   inkscape:window-y="32"
   inkscape:window-maximized="1"
   inkscape:current-layer="Layer_1"
   showgrid="true"><inkscape:grid
     id="grid3"
     units="px"
     originx="0"
     originy="0"
     spacingx="1"
     spacingy="1"
     empcolor="#0099e5"
     empopacity="0.30196078"
     color="#0099e5"
     opacity="0.14902"
     empspacing="8"
     dotted="false"
     gridanglex="30"
     gridanglez="30"
     visible="true" /></sodipodi:namedview>&#10;<style
   type="text/css"
   id="style1">&#10;	.st0{fill:#FFFFFF;}&#10;</style>&#10;&#10;&#10;<path
   id="path6"
   style="fill:#ffffff;stroke-width:62.4;stroke-linecap:round;stroke-linejoin:round"
   d="M 10 6 C 9.9312517 6 9.8638897 6.0029056 9.796875 6.0097656 C 9.7298557 6.0166256 9.6625971 6.0276366 9.5976562 6.0410156 C 9.5327179 6.0543946 9.4687727 6.0702888 9.40625 6.0898438 C 9.3437307 6.1093991 9.2824221 6.1328148 9.2226562 6.1582031 C 9.1628879 6.1835941 9.1054931 6.2113045 9.0488281 6.2421875 C 8.9921598 6.2730715 8.9360332 6.3057619 8.8828125 6.3417969 C 8.8295932 6.3778302 8.7799055 6.4181399 8.7304688 6.4589844 C 8.6810288 6.4998277 8.6331988 6.5425791 8.5878906 6.5878906 C 8.5425813 6.6332026 8.4998309 6.6810306 8.4589844 6.7304688 C 8.4181444 6.7799061 8.3778317 6.8295905 8.3417969 6.8828125 C 8.3057569 6.9360348 8.2730675 6.9921647 8.2421875 7.0488281 C 8.2113075 7.1054881 8.1836031 7.1628925 8.1582031 7.2226562 C 8.1328148 7.2824262 8.1094021 7.3437273 8.0898438 7.40625 C 8.0702838 7.4687683 8.0543956 7.5327165 8.0410156 7.5976562 C 8.0276356 7.6625962 8.0166256 7.7298603 8.0097656 7.796875 C 8.002913 7.8638805 8 7.9312513 8 8 L 8 9 L 10 9 L 10 8 L 11 8 L 11 6 L 10 6 z M 12 6 L 12 8 L 14 8 L 14 6 L 12 6 z M 15 6 L 15 8 L 17 8 L 17 6 L 15 6 z M 18 6 L 18 8 L 21 8 C 21 7.9312507 20.997134 7.8638897 20.990234 7.796875 C 20.983334 7.7298247 20.972364 7.6625972 20.958984 7.5976562 C 20.945604 7.5327169 20.929716 7.4687727 20.910156 7.40625 C 20.890596 7.3437317 20.867187 7.2824222 20.841797 7.2226562 C 20.816407 7.1628869 20.788692 7.1054931 20.757812 7.0488281 C 20.726969 6.9921638 20.692282 6.9360337 20.65625 6.8828125 C 20.62022 6.8295912 20.58186 6.7799059 20.541016 6.7304688 C 20.500166 6.6810308 20.457426 6.6332028 20.412109 6.5878906 C 20.366799 6.5425803 20.318969 6.4998279 20.269531 6.4589844 C 20.220091 6.4181394 20.170404 6.3778317 20.117188 6.3417969 C 20.063968 6.3057619 20.007837 6.2730705 19.951172 6.2421875 C 19.894512 6.2113035 19.837109 6.1835931 19.777344 6.1582031 C 19.717574 6.1328138 19.656274 6.1093971 19.59375 6.0898438 C 19.53123 6.0702878 19.467285 6.0543946 19.402344 6.0410156 C 19.337404 6.0276366 19.270141 6.0166256 19.203125 6.0097656 C 19.136169 6.002903 19.06875 6 19 6 L 18 6 z M 8 10 L 8 12 L 10 12 L 10 10 L 8 10 z M 8 13 L 8 15 L 10 15 L 10 13 L 8 13 z M 8 16 L 8 18 L 10 18 L 10 16 L 8 16 z M 8 19 L 8 20 C 8 20.06875 8.0028656 20.136109 8.0097656 20.203125 C 8.0166656 20.270145 8.0276356 20.337403 8.0410156 20.402344 C 8.0543956 20.467284 8.0702838 20.531226 8.0898438 20.59375 C 8.1094021 20.65627 8.1328148 20.717578 8.1582031 20.777344 C 8.1835931 20.837114 8.2112975 20.894507 8.2421875 20.951172 C 8.2730675 21.007832 8.3057569 21.063967 8.3417969 21.117188 C 8.3778352 21.170401 8.4181379 21.220093 8.4589844 21.269531 C 8.4998337 21.318971 8.5425751 21.366801 8.5878906 21.412109 C 8.6332006 21.457419 8.6810306 21.500169 8.7304688 21.541016 C 8.7799081 21.581856 8.8295895 21.620216 8.8828125 21.65625 C 8.9360318 21.69228 8.9921644 21.726947 9.0488281 21.757812 C 9.1054881 21.788692 9.1628924 21.816427 9.2226562 21.841797 C 9.2824262 21.867187 9.3437273 21.890596 9.40625 21.910156 C 9.4687693 21.929716 9.5327164 21.945604 9.5976562 21.958984 C 9.6625962 21.972364 9.7298603 21.983374 9.796875 21.990234 C 9.8638405 21.997138 9.9312513 22 10 22 L 10 19 L 8 19 z " /><path
   d="m 13,9 c -0.06875,0 -0.136109,0.00291 -0.203125,0.00977 -0.06702,0.00686 -0.134278,0.017871 -0.199219,0.03125 -0.06494,0.013379 -0.128882,0.029273 -0.191406,0.048828 -0.06252,0.019556 -0.123828,0.042969 -0.183594,0.068359 -0.05977,0.025391 -0.117163,0.053101 -0.173828,0.083984 -0.05667,0.030884 -0.112793,0.063574 -0.166015,0.099609 -0.05322,0.036035 -0.102906,0.076343 -0.152344,0.1171875 -0.04944,0.040845 -0.09727,0.083594 -0.142578,0.1289062 -0.04531,0.045312 -0.08806,0.09314 -0.128907,0.1425782 -0.04084,0.049438 -0.08115,0.099121 -0.117187,0.1523437 -0.03604,0.053223 -0.06873,0.1093508 -0.09961,0.1660155 -0.03088,0.05666 -0.05859,0.114063 -0.08399,0.173828 -0.02539,0.05977 -0.0488,0.12107 -0.06836,0.183594 -0.01956,0.06252 -0.03545,0.126465 -0.04883,0.191406 -0.01338,0.06494 -0.02439,0.132203 -0.03125,0.199219 C 11.002905,10.863891 11,10.93125 11,11 v 12 c 0,0.06875 0.0029,0.136109 0.0098,0.203125 0.0069,0.06702 0.01787,0.134278 0.03125,0.199219 0.01338,0.06494 0.02927,0.128882 0.04883,0.191406 0.01956,0.06252 0.04297,0.123828 0.06836,0.183594 0.02539,0.05977 0.0531,0.117163 0.08399,0.173828 0.03088,0.05666 0.06357,0.112793 0.09961,0.166015 0.03604,0.05322 0.07634,0.102906 0.117187,0.152344 0.04085,0.04944 0.08359,0.09727 0.128907,0.142578 0.04531,0.04531 0.09314,0.08806 0.142578,0.128907 0.04944,0.04084 0.09912,0.0792 0.152344,0.115234 0.05322,0.03603 0.10935,0.07068 0.166015,0.101562 0.05666,0.03088 0.114063,0.05859 0.173828,0.08398 0.05977,0.02539 0.12107,0.0488 0.183594,0.06836 0.06252,0.01956 0.126465,0.03545 0.191406,0.04883 0.06494,0.01338 0.132203,0.02439 0.199219,0.03125 C 12.863891,24.997095 12.93125,25 13,25 h 9 c 0.06875,0 0.136109,-0.0029 0.203125,-0.0098 0.06702,-0.0069 0.134278,-0.01787 0.199219,-0.03125 0.06494,-0.01338 0.128882,-0.02927 0.191406,-0.04883 0.06252,-0.01956 0.123828,-0.04297 0.183594,-0.06836 0.05977,-0.02539 0.117163,-0.0531 0.173828,-0.08398 0.05666,-0.03088 0.112793,-0.06553 0.166015,-0.101562 0.05322,-0.03603 0.102906,-0.07439 0.152344,-0.115234 0.04944,-0.04084 0.09727,-0.08359 0.142578,-0.128907 0.04531,-0.04531 0.08806,-0.09314 0.128907,-0.142578 0.04084,-0.04944 0.0792,-0.09912 0.115234,-0.152344 0.03603,-0.05322 0.07068,-0.10935 0.101562,-0.166015 0.03088,-0.05666 0.05859,-0.114063 0.08398,-0.173828 0.02539,-0.05977 0.0488,-0.12107 0.06836,-0.183594 0.01956,-0.06252 0.03545,-0.126465 0.04883,-0.191406 0.01338,-0.06494 0.02439,-0.132203 0.03125,-0.199219 C 23.997095,23.136109 24,23.06875 24,23 V 11 c 0,-0.06875 -0.0029,-0.136109 -0.0098,-0.203125 -0.0069,-0.06702 -0.01787,-0.134278 -0.03125,-0.199219 -0.01338,-0.06494 -0.02927,-0.128882 -0.04883,-0.191406 -0.01956,-0.06252 -0.04297,-0.123828 -0.06836,-0.183594 -0.02539,-0.05977 -0.0531,-0.117163 -0.08398,-0.173828 C 23.726929,9.9921633 23.692285,9.936035 23.65625,9.8828125 23.620215,9.82959 23.58186,9.7799071 23.541016,9.7304688 23.500171,9.6810304 23.457422,9.633203 23.412109,9.5878906 23.366797,9.5425783 23.31897,9.499829 23.269531,9.4589844 c -0.04944,-0.040845 -0.09912,-0.081152 -0.152344,-0.1171875 -0.05322,-0.036035 -0.10935,-0.068726 -0.166015,-0.099609 -0.05666,-0.030884 -0.114063,-0.058594 -0.173828,-0.083984 -0.05977,-0.025391 -0.12107,-0.048804 -0.183594,-0.068359 -0.06252,-0.019556 -0.126465,-0.035449 -0.191406,-0.048828 -0.06494,-0.013379 -0.132203,-0.02439 -0.199219,-0.03125 C 22.136109,9.0029053 22.06875,9 22,9 Z"
   style="fill:#ffffff;stroke-width:62.4;stroke-linecap:round;stroke-linejoin:round"
   id="path3" /></svg>
