<?xml version="1.0" encoding="UTF-8" standalone="no"?>
<!-- Generator: Adobe Illustrator 26.0.0, SVG Export Plug-In . SVG Version: 6.00 Build 0)  -->

<svg
   version="1.1"
   x="0px"
   y="0px"
   viewBox="0 0 32 32"
   style="enable-background:new 0 0 32 32;"
   xml:space="preserve"
   id="svg6"
   sodipodi:docname="delete.svg"
   inkscape:version="1.3 (0e150ed6c4, 2023-07-21)"
   xmlns:inkscape="http://www.inkscape.org/namespaces/inkscape"
   xmlns:sodipodi="http://sodipodi.sourceforge.net/DTD/sodipodi-0.dtd"
   xmlns="http://www.w3.org/2000/svg"
   xmlns:svg="http://www.w3.org/2000/svg"><defs
   id="defs6" /><sodipodi:namedview
   id="namedview6"
   pagecolor="#505050"
   bordercolor="#eeeeee"
   borderopacity="1"
   inkscape:showpageshadow="0"
   inkscape:pageopacity="0"
   inkscape:pagecheckerboard="0"
   inkscape:deskcolor="#505050"
   showgrid="true"
   inkscape:zoom="20.8125"
   inkscape:cx="16.024024"
   inkscape:cy="16"
   inkscape:window-width="1600"
   inkscape:window-height="868"
   inkscape:window-x="0"
   inkscape:window-y="32"
   inkscape:window-maximized="1"
   inkscape:current-layer="svg6"><inkscape:grid
     id="grid6"
     units="px"
     originx="0"
     originy="0"
     spacingx="1"
     spacingy="1"
     empcolor="#0099e5"
     empopacity="0.30196078"
     color="#0099e5"
     opacity="0.14901961"
     empspacing="8"
     dotted="false"
     gridanglex="30"
     gridanglez="30"
     visible="true" /></sodipodi:namedview>&#10;<style
   type="text/css"
   id="style1">&#10;	.st0{display:none;}&#10;	.st1{display:inline;}&#10;	.st2{fill:#FFFFFF;}&#10;</style>&#10;&#10;&#10;<path
   id="rect7"
   style="fill:#ffffff;stroke-width:2;stroke-linecap:round;stroke-linejoin:round;stroke-dashoffset:16"
   d="M 14 5 C 12.892001 5 12 5.8920011 12 7 L 12 9 C 12 10.107999 12.892001 11 14 11 L 14 7 L 18 7 L 18 11 C 19.104367 10.995808 19.992188 10.105387 19.992188 9 L 19.992188 7 C 19.992188 5.8920011 19.100186 5 17.992188 5 L 14 5 z " /><path
   id="path11"
   style="fill:#ffffff;stroke-width:2;stroke-linecap:round;stroke-linejoin:round;stroke-dashoffset:16"
   d="m 10,12 c -0.06925,0 -0.1359572,0.0063 -0.2011719,0.01953 -0.065215,0.01328 -0.1295941,0.03336 -0.1894531,0.05859 -0.059859,0.02523 -0.1167384,0.05593 -0.1699219,0.0918 -0.053183,0.03587 -0.1012972,0.07786 -0.1464843,0.123047 -0.045187,0.04519 -0.087176,0.0933 -0.1230469,0.146484 -0.035871,0.05318 -0.066563,0.110063 -0.091797,0.169922 -0.025234,0.05986 -0.045316,0.124238 -0.058594,0.189453 C 9.0062544,12.864045 9,12.93075 9,13 v 9 1 c 0,0.103874 0.00542,0.205545 0.015625,0.306641 0.010205,0.101095 0.025006,0.201006 0.044922,0.298828 0.019916,0.09782 0.045087,0.195009 0.074219,0.289062 0.029131,0.09405 0.061758,0.185602 0.099609,0.275391 0.037851,0.08979 0.080877,0.176689 0.1269531,0.261719 0.046076,0.08503 0.096584,0.168273 0.1503907,0.248047 0.053806,0.07977 0.1108338,0.156443 0.171875,0.230468 0.061041,0.07403 0.1255786,0.14511 0.1933593,0.212891 0.067781,0.06778 0.1388649,0.132318 0.2128909,0.193359 0.07403,0.06104 0.150694,0.118069 0.230468,0.171875 0.07977,0.05381 0.163018,0.104314 0.248047,0.150391 0.08503,0.04608 0.171931,0.0891 0.261719,0.126953 0.08979,0.03785 0.181338,0.07048 0.275391,0.09961 0.09405,0.02913 0.19124,0.0543 0.289062,0.07422 0.09782,0.01992 0.197733,0.03472 0.298828,0.04492 C 11.794455,25.994581 11.896126,26 12,26 h 8 c 0.103874,0 0.205545,-0.0054 0.306641,-0.01563 0.101095,-0.01021 0.201006,-0.02501 0.298828,-0.04492 0.09782,-0.01992 0.195009,-0.04509 0.289062,-0.07422 0.09405,-0.02913 0.185602,-0.06176 0.275391,-0.09961 0.08979,-0.03785 0.176689,-0.08088 0.261719,-0.126953 0.08503,-0.04608 0.168273,-0.09658 0.248047,-0.150391 0.07977,-0.05381 0.156443,-0.110834 0.230468,-0.171875 0.07403,-0.06104 0.14511,-0.125578 0.212891,-0.193359 0.06778,-0.06778 0.132318,-0.138865 0.193359,-0.212891 0.06104,-0.07402 0.118069,-0.150695 0.171875,-0.230468 0.05381,-0.07977 0.104314,-0.163018 0.150391,-0.248047 0.04608,-0.08503 0.0891,-0.171931 0.126953,-0.261719 0.03785,-0.08979 0.07048,-0.181338 0.09961,-0.275391 0.02913,-0.09405 0.0543,-0.19124 0.07422,-0.289062 0.01992,-0.09782 0.03472,-0.197733 0.04492,-0.298828 C 22.994581,23.20555 23,23.103874 23,23 v -1 -9 c 0,-0.06925 -0.0063,-0.135957 -0.01953,-0.201172 -0.01328,-0.06522 -0.03336,-0.129594 -0.05859,-0.189453 -0.02523,-0.05986 -0.05593,-0.116738 -0.0918,-0.169922 -0.03587,-0.05318 -0.07786,-0.101297 -0.123047,-0.146484 -0.04519,-0.04519 -0.0933,-0.08718 -0.146484,-0.123047 -0.05318,-0.03587 -0.110063,-0.06656 -0.169922,-0.0918 -0.05986,-0.02523 -0.124238,-0.04532 -0.189453,-0.05859 C 22.135955,12.006253 22.06925,12 22,12 Z m 4.007812,3 C 14.556999,15 15,15.443001 15,15.992188 v 6.015624 C 15,22.556999 14.556999,23 14.007812,23 13.458626,23 13.017578,22.556999 13.017578,22.007812 V 15.992188 C 13.017578,15.443001 13.458626,15 14.007812,15 Z m 3.984376,0 c 0.549185,0 0.992187,0.443001 0.992187,0.992188 v 6.015624 C 18.984375,22.556999 18.541373,23 17.992188,23 17.443001,23 17,22.556999 17,22.007812 V 15.992188 C 17,15.443001 17.443001,15 17.992188,15 Z"
   sodipodi:nodetypes="scssssssscssssssssssssssscssccsssssssssssssscscssssccssssssssssssssss" /><rect
   style="fill:#ffffff;stroke:none;stroke-width:2;stroke-linecap:round;stroke-linejoin:round;stroke-dashoffset:16"
   id="rect13"
   width="18"
   height="3"
   x="7"
   y="8"
   ry="1" /></svg>
