<?xml version="1.0" encoding="utf-8"?>
<!-- Generator: Adobe Illustrator 26.0.0, SVG Export Plug-In . SVG Version: 6.00 Build 0)  -->
<svg version="1.1"
	 id="Layer_1" xmlns:inkscape="http://www.inkscape.org/namespaces/inkscape" xmlns:sodipodi="http://sodipodi.sourceforge.net/DTD/sodipodi-0.dtd" xmlns:svg="http://www.w3.org/2000/svg"
	 xmlns="http://www.w3.org/2000/svg" xmlns:xlink="http://www.w3.org/1999/xlink" x="0px" y="0px" viewBox="0 0 16 16"
	 style="enable-background:new 0 0 16 16;" xml:space="preserve">
<style type="text/css">
	.st0{fill:#FFFFFF;stroke:#FFFFFF;stroke-width:2;stroke-linecap:round;stroke-linejoin:round;}
	.st1{fill:none;}
	.st2{fill:#FFFFFF;}
</style>
<defs>
	
		<inkscape:path-effect  effect="bool_op" filltype-operand="from-curve" filltype-this="oddeven" filter="" id="path-effect18" is_visible="true" lpeversion="1" operand-path="#rect14" operation="diff" swap-operands="false">
		</inkscape:path-effect>
	
		<inkscape:path-effect  effect="bool_op" filltype-operand="from-curve" filltype-this="from-curve" filter="" id="path-effect17" is_visible="true" lpeversion="1.2" operand-path="#rect13" operation="union" swap-operands="false">
		</inkscape:path-effect>
	
		<inkscape:path-effect  effect="bool_op" filltype-operand="from-curve" filltype-this="from-curve" filter="" id="path-effect16" is_visible="true" lpeversion="1.2" operand-path="" operation="diff" swap-operands="false">
		</inkscape:path-effect>
	
		<inkscape:path-effect  effect="bool_op" filltype-operand="from-curve" filltype-this="from-curve" filter="" id="path-effect15" is_visible="true" lpeversion="1" operand-path="" operation="diff" swap-operands="false">
		</inkscape:path-effect>
	
		<inkscape:path-effect  effect="bool_op" filltype-operand="from-curve" filltype-this="from-curve" filter="" id="path-effect14" is_visible="true" lpeversion="1" operand-path="" operation="union" swap-operands="false">
		</inkscape:path-effect>
</defs>
<sodipodi:namedview  bordercolor="#eeeeee" borderopacity="1" id="namedview6" inkscape:current-layer="Layer_1" inkscape:cx="12.018018" inkscape:cy="12" inkscape:deskcolor="#505050" inkscape:pagecheckerboard="0" inkscape:pageopacity="0" inkscape:showpageshadow="0" inkscape:window-height="868" inkscape:window-maximized="1" inkscape:window-width="1600" inkscape:window-x="0" inkscape:window-y="32" inkscape:zoom="27.75" pagecolor="#505050" showgrid="true">
	
		<inkscape:grid  color="#0099e5" dotted="false" empcolor="#0099e5" empopacity="0.30196078" empspacing="8" gridanglex="30" gridanglez="30" id="grid6" opacity="0.14902" originx="0" originy="0" spacingx="1" spacingy="1" units="px" visible="true">
		</inkscape:grid>
</sodipodi:namedview>
<path id="path7" sodipodi:nodetypes="cc" class="st0" d="M2,4h12"/>
<path id="rect13" sodipodi:type="rect" class="st1" d="M4,11h8c1.1,0,2,0.9,2,2v1c0,1.1-0.9,2-2,2H4c-1.1,0-2-0.9-2-2v-1
	C2,11.9,2.9,11,4,11z"/>
<path class="st2" d="M10,1H6C4.9,1,4,1.9,4,3v0c0,1.1,0.9,2,2,2h4c1.1,0,2-0.9,2-2v0C12,1.9,11.1,1,10,1z"/>
<g>
	<g>
		<path class="st2" d="M12,6H4C2.9,6,2,6.9,2,8v5c0,1.1,0.9,2,2,2h8c1.1,0,2-0.9,2-2V8C14,6.9,13.1,6,12,6z M7,12c0,0.6-0.4,1-1,1
			s-1-0.4-1-1V9c0-0.6,0.4-1,1-1s1,0.4,1,1V12z M11,12c0,0.6-0.4,1-1,1s-1-0.4-1-1V9c0-0.6,0.4-1,1-1s1,0.4,1,1V12z"/>
	</g>
</g>
</svg>
