<?xml version="1.0" encoding="UTF-8" standalone="no"?>
<!-- Generator: Adobe Illustrator 26.0.0, SVG Export Plug-In . SVG Version: 6.00 Build 0)  -->

<svg
   version="1.1"
   id="Layer_1"
   x="0px"
   y="0px"
   viewBox="0 0 32 32"
   style="enable-background:new 0 0 32 32;"
   xml:space="preserve"
   sodipodi:docname="duplicate.svg"
   inkscape:version="1.3 (0e150ed6c4, 2023-07-21)"
   xmlns:inkscape="http://www.inkscape.org/namespaces/inkscape"
   xmlns:sodipodi="http://sodipodi.sourceforge.net/DTD/sodipodi-0.dtd"
   xmlns="http://www.w3.org/2000/svg"
   xmlns:svg="http://www.w3.org/2000/svg"><defs
   id="defs3" /><sodipodi:namedview
   id="namedview3"
   pagecolor="#505050"
   bordercolor="#eeeeee"
   borderopacity="1"
   inkscape:showpageshadow="0"
   inkscape:pageopacity="0"
   inkscape:pagecheckerboard="0"
   inkscape:deskcolor="#505050"
   inkscape:zoom="20.75"
   inkscape:cx="15.73494"
   inkscape:cy="17.301205"
   inkscape:window-width="1600"
   inkscape:window-height="868"
   inkscape:window-x="0"
   inkscape:window-y="32"
   inkscape:window-maximized="1"
   inkscape:current-layer="Layer_1"
   showgrid="true"><inkscape:grid
     id="grid3"
     units="px"
     originx="0"
     originy="0"
     spacingx="1"
     spacingy="1"
     empcolor="#0099e5"
     empopacity="0.30196078"
     color="#0099e5"
     opacity="0.14902"
     empspacing="8"
     dotted="false"
     gridanglex="30"
     gridanglez="30"
     visible="true" /></sodipodi:namedview>&#10;<style
   type="text/css"
   id="style1">&#10;	.st0{fill:#FFFFFF;}&#10;</style>&#10;&#10;&#10;<path
   d="m 10,6 c -0.06875,0 -0.1361091,0.00291 -0.203125,0.00977 -0.06702,0.00686 -0.1342778,0.017871 -0.1992187,0.03125 -0.06494,0.013379 -0.1288824,0.029273 -0.1914063,0.048828 -0.06252,0.019556 -0.1238278,0.042969 -0.1835937,0.068359 -0.05977,0.025391 -0.1171632,0.053101 -0.1738282,0.083984 -0.05667,0.030884 -0.1127937,0.063574 -0.1660156,0.099609 -0.05322,0.036035 -0.1029058,0.076343 -0.1523437,0.1171875 -0.04944,0.040845 -0.09727,0.083594 -0.1425782,0.1289062 -0.04531,0.045312 -0.088059,0.09314 -0.1289062,0.1425781 -0.04084,0.049438 -0.081151,0.099121 -0.1171875,0.1523438 -0.03604,0.053223 -0.068729,0.109351 -0.099609,0.1660156 -0.03088,0.05666 -0.058584,0.1140632 -0.083984,0.1738281 -0.02539,0.05977 -0.048799,0.1210699 -0.068359,0.1835938 -0.01956,0.06252 -0.035448,0.1264653 -0.048828,0.1914062 -0.01338,0.06494 -0.02439,0.1322029 -0.03125,0.1992188 C 8.0029156,7.8638879 8,7.9312501 8,8 v 12 c 0,0.06875 0.00287,0.136109 0.00977,0.203125 0.0069,0.06702 0.01787,0.134278 0.03125,0.199219 0.01338,0.06494 0.029268,0.128882 0.048828,0.191406 0.01956,0.06252 0.042969,0.123828 0.068359,0.183594 0.02539,0.05977 0.053094,0.117163 0.083984,0.173828 0.03088,0.05666 0.063569,0.112794 0.099609,0.166015 0.03604,0.05322 0.076341,0.102906 0.1171875,0.152344 0.04085,0.04944 0.083589,0.09727 0.1289062,0.142578 0.04531,0.04531 0.09314,0.08806 0.1425782,0.128907 0.04944,0.04084 0.09912,0.0792 0.1523437,0.115234 0.05322,0.03603 0.1093507,0.07068 0.1660156,0.101562 0.05666,0.03088 0.1140632,0.0586 0.1738282,0.08398 0.05977,0.02539 0.1210698,0.0488 0.1835937,0.06836 0.06252,0.01956 0.1264653,0.03545 0.1914063,0.04883 0.06494,0.01338 0.1322028,0.02439 0.1992187,0.03125 C 9.8638479,21.997134 9.9312501,22 10,22 V 11 c 0,-0.09701 0.0048,-0.198755 0.01563,-0.304687 0.01099,-0.107412 0.02783,-0.206413 0.04687,-0.298829 0.01877,-0.09111 0.04076,-0.188372 0.07227,-0.289062 0.03183,-0.10175 0.06841,-0.1927405 0.103515,-0.2753907 0.03763,-0.088537 0.07858,-0.1765434 0.125,-0.2617188 0.04001,-0.073418 0.08875,-0.1570136 0.150391,-0.2480469 0.06815,-0.1006551 0.129249,-0.174552 0.173828,-0.2285156 0.05735,-0.069414 0.121645,-0.1411735 0.193359,-0.2128906 0.07176,-0.071766 0.143469,-0.1360063 0.212891,-0.1933594 0.05402,-0.044629 0.127894,-0.1056961 0.228516,-0.1738281 0.09098,-0.061602 0.17462,-0.1103748 0.248047,-0.1503906 0.08509,-0.046377 0.172996,-0.08731 0.261718,-0.125 0.08265,-0.035113 0.173598,-0.071675 0.275391,-0.1035157 0.100571,-0.031455 0.19788,-0.05348 0.289062,-0.072266 0.09239,-0.019033 0.191397,-0.035879 0.298829,-0.046875 C 12.8014,8.0047655 12.903075,8 13,8 h 8 c 0,-0.06875 -0.0029,-0.1361091 -0.0098,-0.203125 -0.0069,-0.067052 -0.01787,-0.1342778 -0.03125,-0.1992188 -0.01338,-0.06494 -0.02927,-0.1288823 -0.04883,-0.1914062 -0.01956,-0.06252 -0.04297,-0.1238278 -0.06836,-0.1835938 -0.02539,-0.05977 -0.0531,-0.1171631 -0.08398,-0.1738281 -0.03085,-0.056665 -0.06553,-0.1127932 -0.101562,-0.1660156 -0.03603,-0.053222 -0.07439,-0.1029055 -0.115234,-0.1523438 -0.04085,-0.049438 -0.08359,-0.097266 -0.128907,-0.1425781 -0.04531,-0.045312 -0.09314,-0.088062 -0.142578,-0.1289062 -0.04944,-0.040845 -0.09912,-0.081152 -0.152344,-0.1171875 -0.05322,-0.036035 -0.10935,-0.068726 -0.166015,-0.099609 -0.05666,-0.030884 -0.114063,-0.058594 -0.173828,-0.083984 -0.05977,-0.025391 -0.12107,-0.048804 -0.183594,-0.068359 -0.06252,-0.019556 -0.126465,-0.035449 -0.191406,-0.048828 -0.06494,-0.013379 -0.132203,-0.02439 -0.199219,-0.03125 C 19.136105,6.0029056 19.06875,6 19,6 Z"
   style="fill:#ffffff;stroke-width:62.4;stroke-linecap:round;stroke-linejoin:round"
   id="path6" /><path
   d="m 13,9 c -0.06875,0 -0.136109,0.00291 -0.203125,0.00977 -0.06702,0.00686 -0.134278,0.017871 -0.199219,0.03125 -0.06494,0.013379 -0.128882,0.029273 -0.191406,0.048828 -0.06252,0.019556 -0.123828,0.042969 -0.183594,0.068359 -0.05977,0.025391 -0.117163,0.053101 -0.173828,0.083984 -0.05667,0.030884 -0.112793,0.063574 -0.166015,0.099609 -0.05322,0.036035 -0.102906,0.076343 -0.152344,0.1171875 -0.04944,0.040845 -0.09727,0.083594 -0.142578,0.1289062 -0.04531,0.045312 -0.08806,0.09314 -0.128907,0.1425782 -0.04084,0.049438 -0.08115,0.099121 -0.117187,0.1523437 -0.03604,0.053223 -0.06873,0.1093508 -0.09961,0.1660155 -0.03088,0.05666 -0.05859,0.114063 -0.08399,0.173828 -0.02539,0.05977 -0.0488,0.12107 -0.06836,0.183594 -0.01956,0.06252 -0.03545,0.126465 -0.04883,0.191406 -0.01338,0.06494 -0.02439,0.132203 -0.03125,0.199219 C 11.002905,10.863891 11,10.93125 11,11 v 12 c 0,0.06875 0.0029,0.136109 0.0098,0.203125 0.0069,0.06702 0.01787,0.134278 0.03125,0.199219 0.01338,0.06494 0.02927,0.128882 0.04883,0.191406 0.01956,0.06252 0.04297,0.123828 0.06836,0.183594 0.02539,0.05977 0.0531,0.117163 0.08399,0.173828 0.03088,0.05666 0.06357,0.112793 0.09961,0.166015 0.03604,0.05322 0.07634,0.102906 0.117187,0.152344 0.04085,0.04944 0.08359,0.09727 0.128907,0.142578 0.04531,0.04531 0.09314,0.08806 0.142578,0.128907 0.04944,0.04084 0.09912,0.0792 0.152344,0.115234 0.05322,0.03603 0.10935,0.07068 0.166015,0.101562 0.05666,0.03088 0.114063,0.05859 0.173828,0.08398 0.05977,0.02539 0.12107,0.0488 0.183594,0.06836 0.06252,0.01956 0.126465,0.03545 0.191406,0.04883 0.06494,0.01338 0.132203,0.02439 0.199219,0.03125 C 12.863891,24.997095 12.93125,25 13,25 h 9 c 0.06875,0 0.136109,-0.0029 0.203125,-0.0098 0.06702,-0.0069 0.134278,-0.01787 0.199219,-0.03125 0.06494,-0.01338 0.128882,-0.02927 0.191406,-0.04883 0.06252,-0.01956 0.123828,-0.04297 0.183594,-0.06836 0.05977,-0.02539 0.117163,-0.0531 0.173828,-0.08398 0.05666,-0.03088 0.112793,-0.06553 0.166015,-0.101562 0.05322,-0.03603 0.102906,-0.07439 0.152344,-0.115234 0.04944,-0.04084 0.09727,-0.08359 0.142578,-0.128907 0.04531,-0.04531 0.08806,-0.09314 0.128907,-0.142578 0.04084,-0.04944 0.0792,-0.09912 0.115234,-0.152344 0.03603,-0.05322 0.07068,-0.10935 0.101562,-0.166015 0.03088,-0.05666 0.05859,-0.114063 0.08398,-0.173828 0.02539,-0.05977 0.0488,-0.12107 0.06836,-0.183594 0.01956,-0.06252 0.03545,-0.126465 0.04883,-0.191406 0.01338,-0.06494 0.02439,-0.132203 0.03125,-0.199219 C 23.997095,23.136109 24,23.06875 24,23 V 11 c 0,-0.06875 -0.0029,-0.136109 -0.0098,-0.203125 -0.0069,-0.06702 -0.01787,-0.134278 -0.03125,-0.199219 -0.01338,-0.06494 -0.02927,-0.128882 -0.04883,-0.191406 -0.01956,-0.06252 -0.04297,-0.123828 -0.06836,-0.183594 -0.02539,-0.05977 -0.0531,-0.117163 -0.08398,-0.173828 C 23.726929,9.9921633 23.692285,9.936035 23.65625,9.8828125 23.620215,9.82959 23.58186,9.7799071 23.541016,9.7304688 23.500171,9.6810304 23.457422,9.633203 23.412109,9.5878906 23.366797,9.5425783 23.31897,9.499829 23.269531,9.4589844 c -0.04944,-0.040845 -0.09912,-0.081152 -0.152344,-0.1171875 -0.05322,-0.036035 -0.10935,-0.068726 -0.166015,-0.099609 -0.05666,-0.030884 -0.114063,-0.058594 -0.173828,-0.083984 -0.05977,-0.025391 -0.12107,-0.048804 -0.183594,-0.068359 -0.06252,-0.019556 -0.126465,-0.035449 -0.191406,-0.048828 -0.06494,-0.013379 -0.132203,-0.02439 -0.199219,-0.03125 C 22.136109,9.0029053 22.06875,9 22,9 Z"
   style="fill:#ffffff;stroke-width:62.4;stroke-linecap:round;stroke-linejoin:round"
   id="path3" /></svg>
