<?xml version="1.0" encoding="utf-8"?>
<!-- Generator: Adobe Illustrator 26.0.0, SVG Export Plug-In . SVG Version: 6.00 Build 0)  -->
<svg version="1.1" id="Layer_3" xmlns="http://www.w3.org/2000/svg" xmlns:xlink="http://www.w3.org/1999/xlink" x="0px" y="0px"
	 viewBox="0 0 32 32" style="enable-background:new 0 0 32 32;" xml:space="preserve">
<style type="text/css">
	.st0{fill:#FFFFFF;}
</style>
<path class="st0" d="M22.8,14l1.4-1.4c0.6-0.6,0.8-1.3,0.8-1.9c-0.1-0.6-0.4-1.2-0.8-1.6l-1.3-1.3C22.5,7.4,22,7.1,21.3,7
	c-0.6-0.1-1.3,0.2-1.9,0.8L18,9.2L22.8,14z M17,10.3l-8.5,8.5c-0.1,0.1-0.1,0.2-0.2,0.3L7,24.2c-0.1,0.5,0.3,0.9,0.8,0.8l5.2-1.3
	c0.1,0,0.2-0.1,0.3-0.2l8.5-8.5L17,10.3z M18,9.2"/>
</svg>
