<?xml version="1.0" encoding="utf-8"?>
<!-- Generator: Adobe Illustrator 26.0.0, SVG Export Plug-In . SVG Version: 6.00 Build 0)  -->
<svg version="1.1" id="Layer_1" xmlns="http://www.w3.org/2000/svg" xmlns:xlink="http://www.w3.org/1999/xlink" x="0px" y="0px"
	 viewBox="0 0 24 24" style="enable-background:new 0 0 24 24;" xml:space="preserve">
<style type="text/css">
	.st0{fill:none;stroke:#FFFFFF;stroke-width:2;stroke-linecap:round;stroke-miterlimit:10;}
	.st1{fill:#FFFFFF;}
</style>
<line class="st0" x1="12" y1="20" x2="12" y2="17"/>
<path class="st1" d="M17.1,15H6.9C6.3,15,6,14.6,6,14l0,0c0-0.6,0.3-1,0.9-1h10.3c0.5,0,0.9,0.4,0.9,1l0,0C18,14.6,17.7,15,17.1,15z
	"/>
<polygon class="st1" points="9,10 7,13 17,13 15,10 "/>
<rect x="9" y="7" class="st1" width="6" height="3"/>
<path class="st1" d="M16,4H8C7.4,4,7,4.4,7,5l0,0c0,0.6,0.4,1,1,1h8c0.6,0,1-0.4,1-1l0,0C17,4.4,16.6,4,16,4z"/>
</svg>
