<?xml version="1.0" encoding="utf-8"?>
<!-- Generator: Adobe Illustrator 26.0.0, SVG Export Plug-In . SVG Version: 6.00 Build 0)  -->
<svg version="1.1" id="Layer_1" xmlns="http://www.w3.org/2000/svg" xmlns:xlink="http://www.w3.org/1999/xlink" x="0px" y="0px"
	 viewBox="0 0 32 32" style="enable-background:new 0 0 32 32;" xml:space="preserve">
<style type="text/css">
	.st0{fill:none;stroke:#FFFFFF;stroke-width:2;stroke-linecap:round;stroke-miterlimit:10;}
	.st1{fill:#FFFFFF;}
</style>
<line class="st0" x1="16" y1="26" x2="16" y2="21"/>
<path class="st1" d="M22,19H10c-0.6,0-1-0.4-1-1v0c0-0.6,0.4-1,1-1h12c0.6,0,1,0.4,1,1v0C23,18.6,22.6,19,22,19z"/>
<polygon class="st1" points="12,14 10,17 22,17 20,14 "/>
<rect x="12" y="10" class="st1" width="8" height="4"/>
<path class="st1" d="M20,7h-8c-0.6,0-1,0.4-1,1v0c0,0.6,0.4,1,1,1h8c0.6,0,1-0.4,1-1v0C21,7.4,20.6,7,20,7z"/>
</svg>
