<?xml version="1.0" encoding="utf-8"?>
<!-- Generator: Adobe Illustrator 26.0.0, SVG Export Plug-In . SVG Version: 6.00 Build 0)  -->
<svg version="1.1" id="Layer_2_00000072241339076619048200000001535006229351375039_"
	 xmlns="http://www.w3.org/2000/svg" xmlns:xlink="http://www.w3.org/1999/xlink" x="0px" y="0px" viewBox="0 0 24 24"
	 style="enable-background:new 0 0 24 24;" xml:space="preserve">
<style type="text/css">
	.st0{fill:#FFFFFF;}
	.st1{fill:#FFFFFF;enable-background:new    ;}
</style>
<g id="g1" transform="translate(0,-1)">
	<path class="st0" d="M19,17v2c0,1.1-0.9,2-2,2h-6c-1.1,0-2-0.9-2-2v-2c0-2,1.2-3.8,3-4.6c-1.2-0.7-2-2-2-3.4c0-2.2,1.8-4,4-4
		s4,1.8,4,4c0,1.5-0.8,2.7-2,3.4C17.8,13.2,19,15,19,17z"/>
</g>
<g id="g1_00000054986419177558617860000017898516432893009294_" transform="translate(0,-1)">
	<path class="st1" d="M8,19v-2c0-1.8,0.9-3.6,2.3-4.7C9.5,11.4,9,10.2,9,9c0-1.6,0.8-3,1.9-3.9C10.6,5,10.3,5,10,5C7.8,5,6,6.8,6,9
		c0,1.5,0.8,2.7,2,3.4C6.2,13.2,5,15,5,17v2c0,1.1,0.9,2,2,2h1.8C8.3,20.5,8,19.8,8,19z"/>
	<path class="st0" d="M19,17v2c0,1.1-0.9,2-2,2h-6c-1.1,0-2-0.9-2-2v-2c0-2,1.2-3.8,3-4.6c-1.2-0.7-2-2-2-3.4c0-2.2,1.8-4,4-4
		s4,1.8,4,4c0,1.5-0.8,2.7-2,3.4C17.8,13.2,19,15,19,17z"/>
</g>
</svg>
